<svg width="141px" height="31px" viewBox="0 0 141 31" version="1.1" xmlns="http://www.w3.org/2000/svg" xmlns:xlink="http://www.w3.org/1999/xlink">
    <defs>
        <polygon id="path-1" points="0.246905417 0 17.9592804 0 17.9592804 17.1442167 0.246905417 17.1442167"></polygon>
        <polygon id="path-3" points="0.33394625 0 19.6493129 0 19.6493129 17.1439333 0.33394625 17.1439333"></polygon>
        <polygon id="path-5" points="0.47139875 0 8.58444875 0 8.58444875 10.1461667 0.47139875 10.1461667"></polygon>
        <polygon id="path-7" points="0.407639167 0 20.1501392 0 20.1501392 17.14416 0.407639167 17.14416"></polygon>
    </defs>
    <g id="logo-mono-ingenio" stroke="none" stroke-width="1" fill="none" fill-rule="evenodd">
        <g id="Group">
            <g id="Group-4" transform="translate(52.012500, 0.833333)">
                <mask id="mask-2" fill="white">
                    <use xlink:href="#path-1"></use>
                </mask>
                <g id="Clip-3"></g>
                <path d="M5.22350542,7.03375 L13.1298179,7.03375 C12.6877846,4.94785 11.3058096,3.76975 9.24153875,3.76975 C6.97425542,3.76975 5.64753458,5.01471667 5.22350542,7.03375 M17.9592804,8.54788333 C17.9592804,9.05278333 17.9226512,9.65798333 17.8673971,10.0280167 L5.20550125,10.0280167 C5.72079292,12.3830833 7.52741792,13.4098833 9.79408042,13.4098833 C11.3424388,13.4098833 13.0199304,12.83755 14.3094013,11.84475 L17.1298471,14.6712833 C15.1022054,16.3707167 12.5220221,17.1442167 9.51780958,17.1442167 C4.04392208,17.1442167 0.246905417,13.7459167 0.246905417,8.61531667 C0.246905417,3.48415 3.93341375,-0.0150166667 9.27816792,-0.0150166667 C14.4205304,-0.0150166667 17.9406554,3.46715 17.9592804,8.54788333" id="Fill-2" fill="#000000" mask="url(#mask-2)"></path>
            </g>
            <polygon id="Fill-5" fill="#000000" points="98.9911446 17.6961433 94.1809279 17.6961433 94.1809279 1.22824333 98.9911446 1.22824333 98.9911446 16.3803433"></polygon>
            <polygon id="Fill-7" fill="#000000" points="5.51872625 17.6961433 0.708509583 17.6961433 0.708509583 1.22824333 5.51872625 1.22824333 5.51872625 16.5786767"></polygon>
            <g id="Group-11" transform="translate(101.679167, 0.833333)">
                <mask id="mask-4" fill="white">
                    <use xlink:href="#path-3"></use>
                </mask>
                <g id="Clip-10"></g>
                <path d="M5.23666708,8.5646 C5.23666708,11.2058333 7.26368792,13.056 9.97300458,13.056 C12.6829421,13.056 14.7285879,11.2058333 14.7285879,8.5646 C14.7285879,5.92336667 12.6829421,4.0732 9.97300458,4.0732 C7.26368792,4.0732 5.23666708,5.92336667 5.23666708,8.5646 M19.6493129,8.5646 C19.6493129,13.4770333 15.5393962,17.1439333 9.97300458,17.1439333 C4.42585875,17.1439333 0.33394625,13.4770333 0.33394625,8.5646 C0.33394625,3.65216667 4.42585875,-0.0147333333 9.97300458,-0.0147333333 C15.5393962,-0.0147333333 19.6493129,3.65216667 19.6493129,8.5646" id="Fill-9" fill="#000000" mask="url(#mask-4)"></path>
            </g>
            <path d="M46.7066721,30.4520367 C46.7066721,26.56187 43.6931471,23.8362033 39.7024304,23.8362033 C35.7117137,23.8362033 32.7255054,26.56187 32.7255054,30.4520367 L27.5769346,30.4520367 C27.5769346,24.2714033 32.7248846,19.6576033 39.7042929,19.6576033 C46.7072929,19.6576033 51.8788346,24.2714033 51.8788346,30.4520367 L46.7066721,30.4520367 Z" id="Fill-12" fill="#000000"></path>
            <g id="Group-16" transform="translate(123.408333, 0.833333)">
                <mask id="mask-6" fill="white">
                    <use xlink:href="#path-5"></use>
                </mask>
                <g id="Clip-15"></g>
                <path d="M2.59092375,1.79463333 L2.59092375,5.3023 L3.85680292,5.3023 C5.57961542,5.3023 6.11353208,4.4812 6.11353208,3.46516667 C6.11353208,2.44856667 5.44241125,1.79463333 3.85680292,1.79463333 L2.59092375,1.79463333 Z M0.47139875,-0.0147333333 L4.03994875,-0.0147333333 C6.70829042,-0.0147333333 8.23305708,1.41893333 8.23305708,3.54846667 C8.23305708,4.75943333 7.59297792,5.9007 6.38794042,6.4991 L8.58444875,10.1461667 L6.17437375,10.1461667 L4.45094042,7.0839 L2.59092375,7.0839 L2.59092375,10.1461667 L0.47139875,10.1461667 L0.47139875,-0.0147333333 Z" id="Fill-14" fill="#000000" mask="url(#mask-6)"></path>
            </g>
            <polygon id="Fill-17" fill="#000000" points="135.04244 7.44423667 132.343056 4.01987 134.889715 4.01987 136.36916 5.96863667 137.817565 4.01987 140.055669 4.01987 137.63504 7.45783667 140.268615 10.97967 137.939869 10.97967 136.33874 8.94760333 134.782931 10.97967 132.236273 10.97967"></polygon>
            <g id="Group-21" transform="translate(29.662500, 0.833333)">
                <mask id="mask-8" fill="white">
                    <use xlink:href="#path-7"></use>
                </mask>
                <g id="Clip-20"></g>
                <path d="M10.0466975,13.0562267 C7.33738083,13.0562267 5.31036,11.20606 5.31036,8.56482667 C5.31036,5.92359333 7.33738083,4.07286 10.0466975,4.07286 C12.7560142,4.07286 14.8022808,5.92359333 14.8022808,8.56482667 C14.8022808,11.20606 12.7560142,13.0562267 10.0466975,13.0562267 L10.0466975,13.0562267 Z M20.1501392,-0.0150733333 L10.0317975,-0.0150733333 L10.0293142,-0.0150733333 C4.49086,-0.00714 0.407639167,3.65749333 0.407639167,8.56482667 C0.407639167,13.47726 4.49893083,17.14416 10.0466975,17.14416 C15.6130892,17.14416 19.7230058,13.47726 19.7230058,8.56482667 C19.7230058,6.75772667 19.1661183,5.11949333 18.1858225,3.77026 L20.1501392,3.77026 L20.1501392,-0.0150733333 Z" id="Fill-19" fill="#000000" mask="url(#mask-8)"></path>
            </g>
            <path d="M27.2881229,17.6961433 L22.4741813,17.6961433 L22.4741813,8.63797667 C22.4741813,6.57474333 20.6346521,4.89571 18.3741979,4.89571 C16.1137438,4.89571 14.2748354,6.57474333 14.2748354,8.63797667 L14.2748354,17.6961433 L9.46027292,17.6961433 L9.46027292,8.98704333 C9.46027292,4.50074333 13.4590604,0.850843333 18.3741979,0.850843333 C23.2893354,0.850843333 27.2881229,4.50074333 27.2881229,8.98704333 L27.2881229,17.6961433 Z" id="Fill-22" fill="#000000"></path>
            <path d="M90.3118325,17.6961433 L85.4978908,17.6961433 L85.4978908,8.63797667 C85.4978908,6.57474333 83.6583617,4.89571 81.3979075,4.89571 C79.1374533,4.89571 77.298545,6.57474333 77.298545,8.63797667 L77.298545,17.6961433 L72.4839825,17.6961433 L72.4839825,8.98704333 C72.4839825,4.50074333 76.48277,0.850843333 81.3979075,0.850843333 C86.313045,0.850843333 90.3118325,4.50074333 90.3118325,8.98704333 L90.3118325,17.6961433 Z" id="Fill-24" fill="#000000"></path>
        </g>
    </g>
</svg>