<svg width="168px" height="39px" xmlns="http://www.w3.org/2000/svg">
    <g id="logo-mono-anthem" stroke="none" stroke-width="1" fill="none" fill-rule="evenodd">
        <g id="Group" transform="translate(2.000000, 2.000000)" fill="#000000" fill-rule="nonzero">
            <g>
                <path d="M112.961538,22.778125 L104.950549,22.778125 C104.950549,22.2330357 104.950549,20.5151786 104.950549,20.5151786 C104.950549,19.0285714 105.379121,17.80625 106.186813,16.996875 C106.895604,16.2866071 107.884615,15.8901786 108.93956,15.8901786 C111.510989,15.9066964 112.945055,17.5419643 112.945055,20.5151786 C112.961538,20.5151786 112.961538,22.2330357 112.961538,22.778125 Z M115.895604,16.765625 C114.181319,15.2459821 111.791209,14.453125 108.989011,14.453125 C106.483516,14.453125 103.994505,15.5928571 102.148352,17.6080357 C100.17033,19.7388393 99.0824176,22.6790179 99.0659341,25.8504464 C99.0659341,28.9723214 100.186813,31.8299107 102.247253,33.8946429 C104.208791,35.8767857 106.82967,36.9504464 109.631868,36.9504464 C115.021978,36.9339286 118.054945,32.9366071 118.582418,29.2366071 L118.615385,29.0383929 L116.950549,29.0383929 L116.934066,29.1870536 C116.554945,32.1933036 114,35.3977679 110.010989,35.38125 C106.82967,35.38125 105,33.2008929 104.983516,29.4017857 C104.983516,29.4017857 104.983516,25.2558036 104.983516,24.3638393 L118.945055,24.3638393 L118.945055,24.1821429 C118.82967,20.9446429 117.807692,18.4504464 115.895604,16.765625 Z" id="Fill-4"></path>
                <path d="M72.1483516,32.0776786 L70.5824176,32.0776786 L70.5494505,32.2098214 C70.3681319,33.2008929 69.7417582,34.8691964 67.7307692,34.8526786 C66.1648352,34.8526786 65.3571429,33.7459821 65.3571429,31.5821429 C65.3571429,31.5821429 65.3571429,18.153125 65.3571429,16.5013393 L70.5164835,16.5013393 L70.5164835,16.3361607 L70.5164835,15.1964286 L70.5164835,15.03125 L65.3901099,15.03125 L65.3901099,8.50669643 L65.2087912,8.52321429 C64.0054945,8.65535714 61.5494505,8.83705357 60.2637363,8.83705357 L60.0989011,8.83705357 L60.0989011,15.03125 L56.6868132,15.03125 L56.6868132,16.5178571 L60.1153846,16.5178571 L60.1153846,29.6495536 C60.1153846,34.4892857 62.1923077,36.9339286 66.2637363,36.9339286 C70.9450549,36.9339286 71.9175824,33.3660714 72.1153846,32.2758929 L72.1483516,32.0776786" id="Fill-6"></path>
                <path d="M13.7472527,9.28303571 L18.6923077,23.4388393 L9.13186813,23.4388393 L13.7472527,9.28303571 Z M53.5714286,34.8691964 L53.5714286,21.5227679 C53.5714286,19.4580357 52.9120879,17.690625 51.6428571,16.41875 C50.3736264,15.146875 48.543956,14.453125 46.5,14.453125 C43.6978022,14.453125 41.456044,15.5763393 39.8076923,17.7732143 L39.7582418,15.2129464 L39.7582418,15.0477679 L31.3681319,15.0477679 L31.3681319,16.5013393 L34.6648352,16.5013393 L34.6648352,34.8691964 L28.7802198,34.8691964 L16.6978022,0.115625 L16.6648352,0 L15.1813187,0 L3.32967033,34.8691964 L0,34.8691964 L0,36.3227679 L9.87362637,36.3227679 L9.87362637,34.8691964 L5.32417582,34.8691964 L8.6043956,24.9419643 L19.1703297,24.9419643 L22.5,34.8691964 L17.9010989,34.8691964 L17.9010989,36.3227679 L43.1043956,36.3227679 L43.1043956,34.8691964 L39.8076923,34.8691964 L39.8076923,24.6776786 C39.8241758,18.5991071 43.0549451,16.3857143 45.2307692,16.3857143 C47.3406593,16.3857143 48.4120879,17.7566964 48.4120879,20.4491071 C48.4120879,20.4491071 48.4120879,33.2504464 48.4120879,34.8691964 L45.3296703,34.8691964 L45.3296703,36.3227679 L56.9175824,36.3227679 L56.9175824,34.8691964 L53.5714286,34.8691964 Z" id="Fill-7"></path>
                <path d="M94.9945055,34.8691964 L94.9945055,21.3080357 C94.9945055,18.1366071 93.0659341,14.453125 87.6758242,14.453125 C83.489011,14.453125 81.3131868,16.4848214 80.3901099,17.5419643 L80.3901099,0.0991071429 L71.9835165,0.0991071429 L71.9835165,1.61875 L75.1318681,1.61875 L75.1318681,34.8691964 L71.7362637,34.8691964 L71.7362637,36.3227679 L83.6373626,36.3227679 L83.6373626,34.8691964 L80.3901099,34.8691964 L80.3901099,24.5455357 C80.3901099,20.9776786 81.6098901,19.0120536 82.6318681,17.9879464 C83.6208791,16.996875 84.8901099,16.4517857 86.1923077,16.4517857 C89.0769231,16.4517857 89.6868132,18.8303571 89.7032967,20.8290179 C89.7032967,20.8290179 89.7032967,33.2834821 89.7032967,34.8691964 L86.456044,34.8691964 L86.456044,36.3227679 L98.3571429,36.3227679 L98.3571429,34.8691964 L94.9945055,34.8691964" id="Fill-8"></path>
                <path d="M157.961538,34.8691964 L154.730769,34.8691964 L154.730769,20.4821429 C154.730769,16.7491071 152.175824,14.4364275 148.087912,14.4364275 C144.214286,14.4364275 142.104396,16.3691964 141.131868,17.6575893 C140.06044,15.5433036 137.967033,14.4200893 135.082418,14.4364275 C132.313187,14.4364275 129.840659,15.4607143 128.192308,17.2446429 L128.142857,15.1964286 L128.142857,15.03125 L119.587912,15.03125 L119.587912,16.4848214 L123.082418,16.4848214 L123.082418,34.8526786 L119.637363,34.8526786 L119.637363,36.30625 L131.274725,36.30625 L131.274725,34.8526786 L128.307692,34.8526786 L128.307692,24.7107143 C128.406593,21.7540179 128.538462,19.8544643 129.593407,18.4008929 C130.5,17.1950893 131.950549,16.4352679 133.368132,16.4352679 C135.115385,16.4352679 135.741758,17.7566964 135.807692,17.9053571 C136.252747,18.7477679 136.252747,20.2013393 136.252747,21.6053571 L136.252747,34.8526786 L133.153846,34.8526786 L133.153846,36.30625 L144.56044,36.30625 L144.56044,34.8526786 L141.576923,34.8526786 L141.576923,24.7107143 C141.675824,21.7540179 141.807692,19.8544643 142.862637,18.4008929 C143.769231,17.1950893 145.21978,16.4352679 146.637363,16.4352679 C148.384615,16.4352679 149.010989,17.7566964 149.076923,17.9053571 C149.521978,18.7477679 149.521978,20.2013393 149.521978,21.6053571 L149.521978,34.8526786 L146.43956,34.8526786 L146.43956,36.30625 L158.126374,36.30625 L158.126374,34.8526786 L157.961538,34.8526786" id="Fill-9"></path>
                <path d="M162.049451,33.3495536 C162.478022,33.3495536 163.087912,33.415625 163.087912,32.8375 C163.087912,32.4080357 162.725275,32.3419643 162.346154,32.3419643 L161.489011,32.3419643 L161.489011,33.3495536 L162.049451,33.3495536 Z M161.505495,35.1004464 L161.10989,35.1004464 L161.10989,31.9785714 L162.445055,31.9785714 C163.252747,31.9785714 163.532967,32.2758929 163.532967,32.8375 C163.532967,33.4321429 163.104396,33.6633929 162.576923,33.7129464 L163.5,35.1004464 L163.054945,35.1004464 L162.181319,33.7129464 L161.521978,33.7129464 L161.521978,35.1004464 L161.505495,35.1004464 Z M164.406593,33.5477679 C164.406593,32.2263393 163.450549,31.2683036 162.131868,31.2683036 C160.796703,31.2683036 159.840659,32.2263393 159.840659,33.5477679 C159.840659,34.8857143 160.796703,35.84375 162.131868,35.84375 C163.450549,35.84375 164.406593,34.8857143 164.406593,33.5477679 Z M159.395604,33.5477679 C159.395604,32.0611607 160.615385,30.8223214 162.131868,30.8223214 C163.631868,30.8223214 164.851648,32.0446429 164.851648,33.5477679 C164.851648,35.0508929 163.631868,36.2897321 162.131868,36.2897321 C160.615385,36.2897321 159.395604,35.0674107 159.395604,33.5477679 Z" id="Fill-10"></path>
            </g>
        </g>
    </g>
</svg>