<svg width="162px" height="22px" xmlns="http://www.w3.org/2000/svg" >
    <g id="Group" transform="translate(-3.000000, -2.000000)">
        <path d="M162,21.0952649 C162,21.6989853 161.696742,22 161.091949,22 L151.921836,22 C151.677162,22 151.461779,21.9086809 151.277412,21.7277339 C151.093045,21.5450958 151,21.3337091 151,21.0952649 L151,4.90304397 C151,4.66290868 151.093045,4.45490417 151.277412,4.27226607 C151.461779,4.08962796 151.677162,4 151.921836,4 L161.091949,4 C161.696742,4 162,4.30101466 162,4.90304397 C162,5.49661781 161.696742,5.79425028 161.090226,5.79425028 L152.829887,5.79425028 L152.829887,12.1087937 L159.248277,12.1087937 C159.863409,12.1087937 160.171836,12.4047351 160.171836,13 C160.171836,13.6020293 159.863409,13.9013529 159.248277,13.9013529 L152.829887,13.9013529 L152.829887,20.2040586 L161.090226,20.2040586 C161.696742,20.2040586 162,20.5016911 162,21.0952649" id="Fill-66"></path>
        <path d="M147,16.6032134 C147,18.0898243 146.481788,19.3599549 145.44702,20.4169877 C144.412252,21.4723292 143.168874,22 141.715232,22 C140.794702,22 139.912252,21.7581509 139.072848,21.2710702 C138.208609,20.7755332 137.561258,20.1193273 137.134106,19.3007611 C137.044702,19.1282533 137,18.9726581 137,18.8322841 C137,18.58367 137.094371,18.3739547 137.284768,18.201447 C137.475166,18.027248 137.692053,17.9393028 137.933775,17.9393028 C138.183775,17.9393028 138.427152,18.0932068 138.660596,18.3976322 C138.75,18.5396975 138.892384,18.7409565 139.084437,19.0047919 C139.763245,19.8064456 140.640728,20.2055811 141.715232,20.2055811 C142.683775,20.2055811 143.514901,19.8521094 144.205298,19.1485483 C144.895695,18.4416048 145.243377,17.5925961 145.243377,16.6032134 C145.243377,15.6121394 144.895695,14.7648219 144.205298,14.0578784 C143.514901,13.3543174 142.683775,13.0008456 141.715232,13.0008456 C140.503311,13.0008456 139.466887,12.56112 138.60596,11.6816687 C137.746689,10.7988349 137.316225,9.73841962 137.316225,8.50042281 C137.316225,7.26073476 137.746689,6.20031946 138.60596,5.32086818 C139.466887,4.43972564 140.503311,4 141.715232,4 C142.483444,4 143.220199,4.2029503 143.927152,4.60885089 C144.634106,5.01475148 145.165563,5.55764352 145.521523,6.23583576 C145.610927,6.41003476 145.653974,6.572395 145.653974,6.72122522 C145.653974,6.95969182 145.561258,7.16771587 145.374172,7.34191487 C145.190397,7.51611388 144.975166,7.60405901 144.733444,7.60405901 C144.538079,7.60405901 144.172185,7.30132481 143.629139,6.69923894 C143.089404,6.09715306 142.450331,5.79441887 141.715232,5.79441887 C140.986755,5.79441887 140.365894,6.0599455 139.847682,6.58930753 C139.331126,7.11866955 139.072848,7.75627173 139.072848,8.50042281 C139.072848,9.24288265 139.331126,9.88217608 139.847682,10.4115381 C140.365894,10.9392089 140.986755,11.2047355 141.715232,11.2047355 C143.168874,11.2047355 144.412252,11.7324063 145.44702,12.7894391 C146.481788,13.8481631 147,15.1166025 147,16.6032134" id="Fill-62"></path>
        <path d="M131,21.0952649 C131,21.6972943 130.668238,22 129.999057,22 C129.331762,22 129,21.6972943 129,21.0952649 L129,4.90304397 C129,4.30101466 129.331762,4 129.999057,4 C130.668238,4 131,4.30101466 131,4.90304397 L131,21.0952649 Z" id="Fill-60"></path>
        <path d="M122,15.6945045 C122,17.4378581 121.413298,18.9241898 120.241504,20.1551902 C119.069711,21.3844998 117.654533,22 115.994359,22 C114.342243,22 112.928677,21.3844998 111.756884,20.1551902 C110.586702,18.9241898 110,17.4378581 110,15.6945045 L110,4.90465007 C110,4.30267731 110.286904,4 110.860712,4 C111.428073,4 111.710141,4.30267731 111.710141,4.90465007 L111.710141,15.6961954 C111.710141,16.9339596 112.132438,17.9958666 112.973808,18.8785345 C113.815178,19.7628934 114.822565,20.2042273 115.994359,20.2042273 C117.172599,20.2042273 118.18321,19.7628934 119.02458,18.8785345 C119.867562,17.9958666 120.289859,16.9339596 120.289859,15.6961954 L120.289859,4.90465007 C120.289859,4.30267731 120.571927,4 121.137676,4 C121.711484,4 122,4.30267731 122,4.90465007 L122,15.6945045 Z" id="Fill-54"></path>
        <path d="M95.8284506,13.7550023 L95.8284506,5.7974636 L99.492245,5.7974636 C100.503838,5.7974636 101.368949,6.15086895 102.091023,6.8593706 C102.809651,7.56618131 103.169826,8.4184124 103.169826,9.41268201 C103.169826,10.4035698 102.809651,11.2541099 102.091023,11.9592297 C101.368949,12.6592767 100.503838,13.0143729 99.492245,13.0143729 L96.9158703,13.0143729 C96.2747924,13.0143729 95.9111703,13.2595585 95.8284506,13.7550023 L95.8284506,13.7550023 Z M98.9769701,14.8 L99.5060316,14.8084547 C101.02773,14.8084547 102.321949,14.2791921 103.393859,13.220667 C104.464045,12.1621419 105,10.8939408 105,9.40591827 C105,7.91789573 104.464045,6.64631282 103.392135,5.58778769 C102.318502,4.52926256 101.024283,4 99.4991383,4 L94.9064703,4 C94.3033057,4 94,4.29760451 94,4.89281353 L94,21.0953499 C94,21.6973227 94.305029,22 94.9150869,22 C95.5234216,22 95.8284506,21.6973227 95.8284506,21.0953499 L95.8284506,14.0762799 C95.8629171,14.2504462 95.9973367,14.4432128 96.2317092,14.6596524 L103.435219,21.7294504 C103.628231,21.9086895 103.840201,22 104.074573,22 C104.315839,22 104.531255,21.9069986 104.719098,21.7226867 C104.90694,21.5400658 105,21.327008 105,21.0885862 C105,20.8586191 104.91211,20.6489432 104.736331,20.4629403 L98.9769701,14.8 Z" id="Fill-50"></path>
        <path d="M88,18.7449507 C88,18.9410991 87.9091499,19.1490841 87.7274497,19.3621419 C87.0622972,20.1720996 86.1359507,20.8231094 84.9484101,21.3185533 C83.8322518,21.7717238 82.7274497,22 81.6340039,22 C79.2524335,22 77.2164179,21.119023 75.5308241,19.3604509 C73.843608,17.6018788 73,15.4814467 73,12.9940817 C73,10.5168624 73.8452304,8.39812118 75.5356911,6.63954908 C77.2277742,4.88266792 79.2589228,4 81.6340039,4 C82.7274497,4 83.8322518,4.22827619 84.9484101,4.68313762 C86.1359507,5.18027243 87.0622972,5.83128229 87.7274497,6.63278535 C87.9091499,6.85767966 88,7.06735557 88,7.26688586 C88,7.51376233 87.9107722,7.73189291 87.7323167,7.91958666 C87.5554835,8.10558948 87.3462038,8.19859089 87.1093446,8.19859089 C86.9260221,8.19859089 86.7280986,8.10220761 86.513952,7.91113199 C86.3403634,7.74711132 86.0710578,7.50530766 85.706035,7.18910287 C84.541207,6.26077971 83.1817002,5.79577266 81.6291369,5.79577266 C79.7261518,5.79577266 78.100584,6.50089244 76.7491888,7.90944105 C75.3977936,9.31798967 74.7229072,11.0123062 74.7229072,12.9940817 C74.7229072,14.9860028 75.3977936,16.6837013 76.7491888,18.0922499 C78.100584,19.5007985 79.7261518,20.2042273 81.6291369,20.2042273 C83.1817002,20.2042273 84.541207,19.7426022 85.706035,18.8176609 C85.8812459,18.6536402 86.1489293,18.4135275 86.513952,18.0990136 C86.7280986,17.9113199 86.9260221,17.8166275 87.1093446,17.8166275 C87.3462038,17.8166275 87.5554835,17.907938 87.7323167,18.0956318 C87.9107722,18.2799436 88,18.4963833 88,18.7449507" id="Fill-46"></path>
        <path d="M62,15.6945045 C62,17.4378581 61.4149093,18.9241898 60.2415044,20.1551902 C59.071323,21.3844998 57.6529214,22 55.9943586,22 C54.3422431,22 52.9302888,21.3844998 51.7568838,20.1551902 C50.5867025,18.9241898 50,17.4378581 50,15.6945045 L50,4.90465007 C50,4.30267731 50.286904,4 50.8607119,4 C51.4280725,4 51.7117529,4.30267731 51.7117529,4.90465007 L51.7117529,15.6961954 C51.7117529,16.9339596 52.1324379,17.9958666 52.9738079,18.8785345 C53.815178,19.7628934 54.8225655,20.2042273 55.9943586,20.2042273 C57.1742109,20.2042273 58.184822,19.7628934 59.0261921,18.8785345 C59.8675621,17.9958666 60.289859,16.9339596 60.289859,15.6961954 L60.289859,4.90465007 C60.289859,4.30267731 60.5719275,4 61.1376763,4 C61.713096,4 62,4.30267731 62,4.90465007 L62,15.6945045 Z" id="Fill-40"></path>
        <path d="M45,21.0952649 C45,21.6989853 44.6966943,22 44.0918064,22 L34.9202569,22 C34.6772677,22 34.4601285,21.9086809 34.2757324,21.7277339 C34.0913364,21.5450958 34,21.3337091 34,21.0952649 L34,4.90304397 C34,4.30101466 34.3033057,4 34.9133636,4 C35.5234216,4 35.8284506,4.30101466 35.8284506,4.90304397 L35.8284506,20.2040586 L44.090083,20.2040586 C44.6966943,20.2040586 45,20.5016911 45,21.0952649" id="Fill-36"></path>
        <path d="M27,7.26550169 C27,7.51409245 26.910695,7.73055242 26.7320849,7.91826381 C26.5550985,8.1042841 26.3472613,8.19729425 26.1085733,8.19729425 C25.9332107,8.19729425 25.7367396,8.10090192 25.5142888,7.90980834 C24.5871401,7.13866967 23.8386014,6.61612176 23.2670491,6.3421646 C22.5071444,5.97688839 21.6270838,5.79425028 20.628491,5.79425028 C18.7271054,5.79425028 17.1001299,6.4994363 15.7491881,7.90811725 C14.3982464,9.3167982 13.7227755,11.0129651 13.7227755,12.9949267 C13.7227755,14.9836528 14.3998701,16.6848929 15.7540593,18.0918828 C17.1082485,19.5022548 18.7368478,20.2057497 20.6431046,20.2057497 C22.4227105,20.2057497 23.9668759,19.5868095 25.2772245,18.3472379 L25.2772245,13 C25.2772245,12.4047351 25.5630006,12.1087937 26.1378004,12.1087937 C26.7126001,12.1087937 27,12.4047351 27,13 L27,18.7328072 C27,19.613867 26.128058,20.4069899 24.3857978,21.1087937 C22.92769,21.7023675 21.6790431,22 20.6398571,22 C18.2562243,22 16.2184456,21.1206313 14.5313921,19.361894 C12.8427149,17.6014656 12,15.4791432 12,12.9949267 C12,10.5174746 12.8443386,8.39684329 14.5362633,6.63810598 C16.2249405,4.87936866 18.2594717,4 20.6349859,4 C21.7342498,4 22.8383849,4.22829763 23.9490149,4.68151071 C25.1116042,5.17192785 26.0371292,5.82130778 26.7272137,6.6313416 C26.9090712,6.84780158 27,7.05918828 27,7.26550169 Z" id="Fill-28"></path>
        <path d="M7,21.0952649 C7,21.6972943 6.6663525,22 5.99905749,22 C5.33176249,22 5,21.6972943 5,21.0952649 L5,4.90304397 C5,4.30101466 5.33176249,4 5.99905749,4 C6.6663525,4 7,4.30101466 7,4.90304397 L7,21.0952649 Z" id="Fill-21"></path>
    </g>
</svg>